<?xml version="1.0" encoding="UTF-8"?>
<svg xmlns="http://www.w3.org/2000/svg" xmlns:xlink="http://www.w3.org/1999/xlink" width="32pt" height="32pt" viewBox="0 0 32 32" version="1.1">
<g id="surface1">
<path style=" stroke:none;fill-rule:nonzero;fill:rgb(77.647059%,4.705882%,18.823529%);fill-opacity:1;" d="M 12.902344 31.84375 C 10.105469 31.265625 7.496094 29.972656 5.449219 28.152344 C 0.1875 23.480469 -1.4375 16.140625 1.339844 9.609375 C 2.023438 8.007812 3.132812 6.378906 4.507812 4.964844 L 5.71875 3.71875 L 5.804688 11.015625 C 5.886719 18 5.90625 18.351562 6.234375 19.230469 C 6.894531 20.992188 7.605469 22.113281 8.824219 23.328125 C 11.976562 26.464844 16.597656 27.25 20.527344 25.308594 C 24.21875 23.488281 26.546875 19.527344 26.277344 15.527344 C 26.09375 12.839844 25.191406 10.867188 23.238281 8.902344 C 21.761719 7.417969 20.027344 6.449219 18.136719 6.054688 C 16.214844 5.652344 16.304688 5.59375 16.304688 7.21875 L 16.304688 8.625 L 17.359375 8.820312 C 21.441406 9.570312 24.144531 13.582031 23.292969 17.628906 C 23.019531 18.917969 22.414062 20.0625 21.441406 21.113281 C 19.960938 22.710938 17.882812 23.472656 16.0625 23.46875 C 13.058594 23.464844 10.550781 21.757812 9.335938 19.230469 C 9.335938 19.230469 9.015625 18.511719 8.914062 18.066406 C 8.3125 15.441406 8.695312 9.921875 8.695312 9.921875 L 8.652344 1.847656 L 9.128906 1.601562 C 9.390625 1.46875 9.640625 1.355469 9.6875 1.355469 C 9.730469 1.355469 9.789062 5.0625 9.8125 9.59375 C 9.8125 9.59375 9.234375 15.535156 9.949219 17.8125 C 10.050781 18.140625 10.25 18.703125 10.25 18.703125 C 10.875 19.980469 11.878906 21.101562 13.183594 21.71875 C 14.175781 22.191406 14.675781 22.402344 16.140625 22.402344 C 17.097656 22.402344 17.949219 22.101562 18.925781 21.652344 C 20.074219 21.121094 21.394531 19.71875 21.882812 18.4375 C 23.226562 14.90625 21.355469 11.109375 17.75 10.046875 C 16.277344 9.617188 16.304688 9.589844 16.304688 11.195312 L 16.304688 12.59375 L 17.011719 12.785156 C 19.5625 13.464844 20.339844 16.882812 18.339844 18.640625 C 17.632812 19.261719 16.996094 19.535156 15.878906 19.535156 C 14.6875 19.535156 13.546875 18.8125 12.957031 17.707031 C 12.605469 17.042969 12.574219 16.414062 12.574219 16.125 C 12.574219 13.457031 12.515625 8.664062 12.515625 8.664062 L 12.46875 0.441406 L 12.835938 0.347656 C 13.035156 0.300781 13.851562 0.175781 14.644531 0.0742188 C 17.335938 -0.269531 21.316406 0.609375 23.988281 2.140625 C 27.632812 4.226562 30.394531 7.808594 31.542969 11.953125 C 31.9375 13.375 31.980469 13.792969 31.980469 16.082031 C 31.980469 18.363281 31.9375 18.792969 31.550781 20.1875 C 29.988281 25.816406 26.011719 29.839844 20.332031 31.546875 C 19.136719 31.90625 18.574219 31.972656 16.464844 32.019531 C 14.761719 32.054688 13.660156 32 12.902344 31.84375 Z M 12.902344 31.84375 "/>
</g>
</svg>
