<?xml version="1.0" ?><svg viewBox="0 0 64 64" xmlns="http://www.w3.org/2000/svg"><defs><style>.cls-1{fill:#767689;}.cls-2{fill:#6cc5ef;}.cls-3{fill:#f9f9f9;}.cls-4{fill:#3db3ea;}</style></defs><g data-name="Rocket" id="Rocket-3"><path class="cls-1" d="M38.52,49.3V51l8.21,5.54a1.32,1.32,0,0,0,2.06-1.1V43.25a2.87,2.87,0,0,0-2.22-2.8l-5.14-1.21-18.94,0-5.06,1.19a2.87,2.87,0,0,0-2.22,2.8v12.2a1.32,1.32,0,0,0,2.06,1.1L25.48,51V49.3Z"/><path class="cls-2" d="M25.48,49.3h13a2,2,0,0,0,2-1.8c.55-4.7,2-17,2-17A39.7,39.7,0,0,0,32,4,39.7,39.7,0,0,0,21.45,30.49s1.45,12.31,2,17A2,2,0,0,0,25.48,49.3Z"/><path class="cls-3" d="M32,21.9a4.75,4.75,0,1,1-4.75,4.75A4.75,4.75,0,0,1,32,21.9Z"/><path class="cls-3" d="M26.78,52.73H37.23a1.3,1.3,0,0,0,.91-.38,1.34,1.34,0,0,0,.38-.92V49.3h-13v2.13a1.34,1.34,0,0,0,.38.92A1.3,1.3,0,0,0,26.78,52.73Z"/><path class="cls-3" d="M32,4a43.07,43.07,0,0,0-5.89,8.4l.12.09a22.81,22.81,0,0,0,5.77.72,22.86,22.86,0,0,0,5.77-.72l.14,0A42.77,42.77,0,0,0,32,4Z"/><path class="cls-4" d="M38.44,50.3h-13a3,3,0,0,1-3-2.68c-2.1-17.88-2-17-2-17.13A41,41,0,0,1,31.21,3.33a1,1,0,0,1,1.49,0A40.89,40.89,0,0,1,43.47,30.49c0,.11.11-.94-2,17.13A3,3,0,0,1,38.44,50.3Zm-16-19.87,2,17a1,1,0,0,0,1,.92h13a1,1,0,0,0,1-.92l2-17A38.86,38.86,0,0,0,32,5.52,38.81,38.81,0,0,0,22.45,30.43Z"/><path class="cls-1" d="M32,39.61a1.71,1.71,0,0,1,1.72,1.72v17a1.72,1.72,0,0,1-3.44,0v-17A1.71,1.71,0,0,1,32,39.61Z"/></g></svg>